<svg id="Layer_1" data-name="Layer 1" xmlns="http://www.w3.org/2000/svg" viewBox="0 0 1100.35 376.03"><path d="M116.53,253.21H86.9v-4.4c.81-.07,2-.19,3.47-.38a9.51,9.51,0,0,0,3.17-.74c2-1,2.92-3,2.92-6.2V210.15H62.91V240.8c0,2.92.61,4.78,2.87,6.27a10.88,10.88,0,0,0,3,1.12,21.45,21.45,0,0,0,3.47.62v4.4H42.64v-4.4c.81-.07,2-.19,3.48-.38a9.5,9.5,0,0,0,3.16-.74c2-1,2.92-3,2.92-6.2V178c0-2.66-.75-5-2.92-6.2a19.38,19.38,0,0,0-6.64-2.17v-4.41H72.27v4.41a22.34,22.34,0,0,0-3.47.56,15.56,15.56,0,0,0-3,.93c-2.26,1-2.87,3.53-2.87,6.26v27.3H96.46V178c0-2.66-.76-5-2.92-6.2a19.45,19.45,0,0,0-6.64-2.17v-4.41h29.63v4.41a22.15,22.15,0,0,0-3.47.56,15.56,15.56,0,0,0-3,.93c-2.27,1-2.87,3.53-2.87,6.26V240.8c0,2.92.6,4.78,2.87,6.27a10.88,10.88,0,0,0,3,1.12,21.27,21.27,0,0,0,3.47.62Z"/><path d="M186.59,227.28l-1.36,25.93H126v-4.4c1-.07,2.36-.25,4-.5a12.07,12.07,0,0,0,3.27-.87c2.16-1.24,2.86-3.16,2.86-6.2V178c0-2.73-.5-4.9-2.86-6.2a14.76,14.76,0,0,0-3.67-1.43,18.63,18.63,0,0,0-3.62-.74v-4.41h55.22v21.22h-3.77a30.32,30.32,0,0,0-4.38-10c-2.21-3.53-4.33-5.52-6.34-5.83a61.09,61.09,0,0,0-8.65-.5H146.86v35h8a13.86,13.86,0,0,0,5.64-.87,8.31,8.31,0,0,0,3.17-3,16.89,16.89,0,0,0,1.86-4.78,32.28,32.28,0,0,0,1.05-5.71h3.77v34.44h-3.77a32.82,32.82,0,0,0-1.1-6.27,16.8,16.8,0,0,0-1.81-4.84c-2.07-3.23-4.43-3.91-8.81-3.91h-8v26.43c0,5.28.45,8.19,2.21,9.74s4.43,1.86,10,1.86h4.37a33.4,33.4,0,0,0,4.58-.24c2.57-.31,5.68-1.18,6.84-2.67a39.12,39.12,0,0,0,4.83-9,64.91,64.91,0,0,0,3.27-8.93Z"/><path d="M260.42,253.21H230.7v-4.4c5.23-.44,9.1-1.74,9.1-3.54a11.12,11.12,0,0,0-.4-2.79l-5.93-19.73h-25c-1.86,5.77-2.92,9.86-3.87,13.52a32.09,32.09,0,0,0-1.16,7.08c0,1.67,1.06,2.91,3.17,3.84a21.31,21.31,0,0,0,7.14,1.62v4.4H186.89v-4.4a17.35,17.35,0,0,0,3.27-.69,10.1,10.1,0,0,0,3.22-1.61c2.67-2.23,3.87-4.28,5.28-8.56q5.35-16.56,11.87-37.23t11.57-36.79h4l23.79,75.94a12.76,12.76,0,0,0,4.38,6.83,11.39,11.39,0,0,0,3,1.49,15.59,15.59,0,0,0,3.12.62Zm-28.76-36L220.84,183.1l-10.61,34.13Z"/><path d="M332.5,253.21H313.29c-4.28-8.25-8.1-15.32-11.57-21.34s-7.14-12.16-11.17-18.55h-7.29v27.92c0,2.91.5,5.15,2.92,6.33a12.24,12.24,0,0,0,3.17.8,38.08,38.08,0,0,0,3.82.44v4.4H263v-4.4c.81-.07,2-.25,3.47-.44a9.91,9.91,0,0,0,3.22-.8c2-1.06,2.87-3.11,2.87-6.33V177.58c0-2.91-.4-5.21-2.87-6.39a26.8,26.8,0,0,0-6.69-1.61v-4.41h32.94c6,0,11.42,1.43,15.7,4.84s6.84,8.63,6.84,16.13c0,6.77-1.71,12-5,15.76a28.51,28.51,0,0,1-12.43,7.94q5.28,8.66,8.75,14.52t8.6,14.33c3,5,5.19,6.89,7.55,8.38a16.29,16.29,0,0,0,6.54,1.74Zm-40.69-83h-8.55V208h6.59a14.47,14.47,0,0,0,11.57-5.46c3.06-3.66,4.62-8.68,4.62-15C306,176.9,300.86,170.2,291.81,170.2Z"/><path d="M393.26,189.06h-3.47A46.5,46.5,0,0,0,385.51,178c-2-3.78-4.53-7-6.74-7.44a66.46,66.46,0,0,0-8.3-.5h-2.91v70.42c0,2.73.8,5.15,3.16,6.39A23.88,23.88,0,0,0,374.5,248a26.13,26.13,0,0,0,4.52.81v4.4H345.33v-4.4c.95-.07,2.36-.25,4.27-.5a14,14,0,0,0,4-.93c2.22-1.06,3.22-3,3.22-6.39V170h-2.91a58.19,58.19,0,0,0-8.3.5c-2.21.31-4.73,3.72-6.74,7.44a49.67,49.67,0,0,0-4.28,11.11h-3.52V165.17h62.17Z"/><path d="M686.65,169.58a19.79,19.79,0,0,0-4.32,1,13.49,13.49,0,0,0-4.18,1.92c-2.41,2-3.06,8.13-3.06,17.13v64.46h-4.38l-43.25-72v45.41c0,10.18,1,15.27,3.17,17.56.75.93,2.36,1.74,4.78,2.55a26,26,0,0,0,4.77,1.24v4.4H610.91v-4.4a25.55,25.55,0,0,0,4.58-1.18,11.64,11.64,0,0,0,4-2,10,10,0,0,0,2.42-5.27,76.4,76.4,0,0,0,.65-12.22V184.78c0-3.79-1.16-8.07-3-10.11a18.75,18.75,0,0,0-9.9-5.09v-4.41h20.36l40.14,67.13V190.42c0-10.23-1.11-15.51-3.12-17.31a14.83,14.83,0,0,0-4.63-2.29,19.31,19.31,0,0,0-4.82-1.24v-4.41h29Z"/><path d="M759,253.21H729.26v-4.4c5.23-.44,9.1-1.74,9.1-3.54a11.12,11.12,0,0,0-.4-2.79L732,222.75H707c-1.86,5.77-2.92,9.86-3.87,13.52a32.09,32.09,0,0,0-1.16,7.08c0,1.67,1,2.91,3.17,3.84a21.26,21.26,0,0,0,7.14,1.62v4.4H685.45v-4.4a17.51,17.51,0,0,0,3.27-.69,10.21,10.21,0,0,0,3.22-1.61c2.67-2.23,3.87-4.28,5.28-8.56q5.35-16.56,11.87-37.23t11.57-36.79h4l23.79,75.94a12.75,12.75,0,0,0,4.37,6.83,11.47,11.47,0,0,0,3,1.49,15.59,15.59,0,0,0,3.12.62Zm-28.77-36L719.4,183.1l-10.61,34.13Z"/><path d="M819.54,189.06h-3.47A46.5,46.5,0,0,0,811.79,178c-2-3.78-4.52-7-6.74-7.44a66.46,66.46,0,0,0-8.3-.5h-2.91v70.42c0,2.73.8,5.15,3.17,6.39a23.29,23.29,0,0,0,3.77,1.18,26.13,26.13,0,0,0,4.52.81v4.4H771.61v-4.4c.95-.07,2.36-.25,4.27-.5a14.19,14.19,0,0,0,4-.93c2.21-1.06,3.22-3,3.22-6.39V170h-2.92a58.35,58.35,0,0,0-8.3.5c-2.21.31-4.73,3.72-6.74,7.44a49.1,49.1,0,0,0-4.27,11.11h-3.52V165.17h62.16Z"/><path d="M897.45,169.58a26.72,26.72,0,0,0-4.13.74,11.05,11.05,0,0,0-4.42,2.05c-2.27,1.92-3,8.19-3,16.81v38.28c0,9.74-3.57,16.94-9,21.59a26.1,26.1,0,0,1-16.8,6.27c-8.6,0-15.34-3-19.92-7.69A25.36,25.36,0,0,1,833.42,230V178c0-2.91-.55-4.65-2.91-6.32a16.14,16.14,0,0,0-6.44-2v-4.41h29.72v4.41a25.62,25.62,0,0,0-3.57.56,16.08,16.08,0,0,0-3.12.93c-2.26,1-2.86,3.53-2.86,6.26V226c0,4.72.65,10.18,3.11,14.65,2.62,4.53,6.74,7.75,14.59,7.75,7.39,0,12.32-3.16,15.19-7.88a26.9,26.9,0,0,0,3.77-14.39V190c0-9.18-1.11-15.2-3.17-17a11.65,11.65,0,0,0-4.83-2.42,25.21,25.21,0,0,0-4.62-1v-4.41h29.17Z"/><path d="M972.69,253.21H953.48c-4.28-8.25-8.1-15.32-11.57-21.34s-7.14-12.16-11.17-18.55h-7.29v27.92c0,2.91.5,5.15,2.92,6.33a12.24,12.24,0,0,0,3.17.8,38.41,38.41,0,0,0,3.82.44v4.4H903.18v-4.4c.81-.07,2-.25,3.47-.44a9.91,9.91,0,0,0,3.22-.8c2-1.06,2.87-3.11,2.87-6.33V177.58c0-2.91-.4-5.21-2.87-6.39a26.8,26.8,0,0,0-6.69-1.61v-4.41h33c6,0,11.41,1.43,15.69,4.84s6.84,8.63,6.84,16.13c0,6.77-1.71,12-5,15.76a28.53,28.53,0,0,1-12.42,7.94q5.28,8.66,8.75,14.52t8.6,14.33c3,5,5.18,6.89,7.54,8.38a16.29,16.29,0,0,0,6.54,1.74ZM932,170.2h-8.55V208H930a14.47,14.47,0,0,0,11.57-5.46c3.07-3.66,4.62-8.68,4.62-15C946.23,176.9,941.05,170.2,932,170.2Z"/><path d="M1035.46,227.28l-1.36,25.93H974.86v-4.4c1-.07,2.36-.25,4-.5a12.07,12.07,0,0,0,3.27-.87c2.16-1.24,2.86-3.16,2.86-6.2V178c0-2.73-.5-4.9-2.86-6.2a14.76,14.76,0,0,0-3.67-1.43,18.63,18.63,0,0,0-3.62-.74v-4.41h55.22v21.22h-3.77a30.32,30.32,0,0,0-4.38-10c-2.21-3.53-4.33-5.52-6.34-5.83a61.09,61.09,0,0,0-8.65-.5H995.73v35h8a13.86,13.86,0,0,0,5.64-.87,8.31,8.31,0,0,0,3.17-3,16.89,16.89,0,0,0,1.86-4.78,32.28,32.28,0,0,0,1-5.71h3.77v34.44h-3.77a32.82,32.82,0,0,0-1.1-6.27,16.8,16.8,0,0,0-1.81-4.84c-2.07-3.23-4.43-3.91-8.81-3.91h-8v26.43c0,5.28.45,8.19,2.21,9.74s4.43,1.86,10,1.86h4.37a33.4,33.4,0,0,0,4.58-.24c2.57-.31,5.68-1.18,6.84-2.67a39.12,39.12,0,0,0,4.83-9,63.58,63.58,0,0,0,3.27-8.93Z"/><path d="M1058,157h-1a12.39,12.39,0,0,0-1.26-2.74c-.56-1-1.09-1.51-1.58-1.58-.26,0-.6-.07-1-.1s-.73,0-1,0h-.59v15.66a1.43,1.43,0,0,0,.8,1.5,5.34,5.34,0,0,0,.9.27c.41.09.75.14,1,.18v1.1h-10v-1.1l1-.11a3.59,3.59,0,0,0,.91-.2,1.41,1.41,0,0,0,.81-1.5v-15.8h-.59c-.29,0-.63,0-1,0s-.72.06-1,.1c-.49.07-1,.61-1.6,1.58a13.23,13.23,0,0,0-1.24,2.74h-1v-5.71H1058Z"/><path d="M1083.49,171.22h-9.66v-1.1c.28,0,.62-.07,1-.14a3.92,3.92,0,0,0,.85-.21,1.45,1.45,0,0,0,.87-1.5V153.35l-6.13,17.55h-1.59c-.07-.31-.26-.93-.56-1.85s-.53-1.66-.72-2.2l-4.51-13.72v12.14c0,2.32.26,3.42.88,4a3,3,0,0,0,1.11.56,5.74,5.74,0,0,0,1.15.31v1.1h-7.67v-1.1a10.24,10.24,0,0,0,1-.18,2.86,2.86,0,0,0,1.17-.52c.66-.52.85-1.69.85-4v-9.88a3.05,3.05,0,0,0-.8-2.45,3.3,3.3,0,0,0-2.1-.73v-1.1h8.21l4.4,13.18,3.71-10.71a14,14,0,0,0,.36-1.4,8.72,8.72,0,0,0,.19-1.07h7.91v1.1a7.32,7.32,0,0,0-1.69.33,1.35,1.35,0,0,0-.8,1.45v14.14a1.38,1.38,0,0,0,.8,1.45,3.45,3.45,0,0,0,.82.24c.39.07.68.13.89.15Z"/><path d="M459.8,272.5s-3.19,5.29-2.87,6.59c-4.95-.33-22.56-.46-20.41,5.87,1.3.72,3.13.91,13.5-1.76,2.28.06,14.87,8.28,4.24,16.83-7,.26-10.24.58-11.35,0s-8.74-2.8-17.15.32c-5.87,0-10.5-1.5-8.94,5.35.59,1.3,2.61,5.41,10.24-1.44,6.46-.19,9.72.07,9.72.07s3.85,7.76,9.13,1a26.86,26.86,0,0,1,5.68.13s-7.37,7.63-9.07,14.55a17.82,17.82,0,0,1-3.91,2s-10.31-3.39-10,8.67c-.65.59-14.15-.19-17.87,14.74-2.22,1.76-3.65,2.74-3.65,2.74s-11.68.07-13,8.74c.78.72,3.33,1.8,7.89-3.46,2.28-.52,10.3-3.19,8.28,5.35a37.62,37.62,0,0,1-2.15,4.89c-.06.2-1.3,4.18.65,4.44s5.48-4.37,5.81-9.92a48,48,0,0,0-.46-10s4.37-12.26,13.44-10.57c3.13,1.7,14.34,15.46,14.34,15.46l.53.58-3.66,10.05,5.87-5.61,3.2.06s.59-7-8.74-14.28c-3.85-5.93-8-13.56.91-18.45,7.63-1,8.22.26,13.5-9.66a9.13,9.13,0,0,1,1.89-2.41s13.44,18.39,25.44,26.87c.45,1,1.95,5.09-3.26,6.85a89.3,89.3,0,0,0-9.72,2.67l-.85,9s4.24-9.78,13.37-8.8c3.85.06,6.78.06,7.18,4.69a27.52,27.52,0,0,0,1.43,5.81,10,10,0,0,0,1,1.56l1.43.33s2-3.13-1-10.5c1.89-.72,7.24,3.59,7.24,3.59s6-.46-7.63-10.44c-11.09-11.28-27.75-25.26-31.37-35.48.19-.78,3.06-3,9.33,1.63,5,4.18,10.1,8.89,10.23,9.11s2.87,2.5,2.87,2.5l.46-3.78L491,322.2s2.08-3.2-12.46-9.85c-12.39-6.59-17.61-9.19-17.61-9.19s5.48-7.05,4.83-11.48c-1.83-4.05-4.24-8.87-4.24-8.87a16.46,16.46,0,0,1,1.69-8.15A10.32,10.32,0,0,1,459.8,272.5Z"/><path d="M496.69,224.35a13.46,13.46,0,0,0,1.49-3.17,27.46,27.46,0,0,0,.95-3.7,33.33,33.33,0,0,0,.5-3.77c.1-1.24.15-2.39.15-3.44a28.85,28.85,0,0,0-.24-3.7,22.79,22.79,0,0,0-.72-3.57,19.64,19.64,0,0,0-1.22-3.23,10.46,10.46,0,0,0-1.72-2.61,7.74,7.74,0,0,0-2.23-1.75,5.81,5.81,0,0,0-2.73-.64,5,5,0,0,0-2.87.82,7.58,7.58,0,0,0-2.14,2.22,13.09,13.09,0,0,0-1.5,3.17,28.1,28.1,0,0,0-1,3.69,35.09,35.09,0,0,0-.5,3.77c-.1,1.25-.15,2.4-.15,3.43a28.77,28.77,0,0,0,.24,3.68,24.15,24.15,0,0,0,.72,3.6,20.33,20.33,0,0,0,1.22,3.24,11.28,11.28,0,0,0,1.72,2.63,7.74,7.74,0,0,0,2.23,1.76,5.85,5.85,0,0,0,2.74.64,5,5,0,0,0,2.86-.84A7.78,7.78,0,0,0,496.69,224.35Z"/><path d="M557.24,137.82a63.22,63.22,0,0,0-54.45,16.84,63.29,63.29,0,0,0-54.7-16c-43.7,7.92-51,59.82-27.74,91.52,20.93,28.54,50.38,51.49,80.91,72.22l2.64,1.79,2.62-1.83c30.21-21.18,59.32-44.56,79.83-73.41C609.12,196.87,601.06,145.08,557.24,137.82Zm-73.05,91.92a12.19,12.19,0,0,1-3.69-3.8,18.54,18.54,0,0,1-2.25-5.37,24.55,24.55,0,0,1-.77-6.17,33.31,33.31,0,0,1,1.85-10.84,27.21,27.21,0,0,1,2.27-4.88,19.18,19.18,0,0,1,3.11-4,14.06,14.06,0,0,1,3.93-2.7,11.32,11.32,0,0,1,4.71-1,9.05,9.05,0,0,1,5.06,1.44,12.41,12.41,0,0,1,3.69,3.8,18.57,18.57,0,0,1,2.27,5.37,25,25,0,0,1,.77,6.17,33.13,33.13,0,0,1-.47,5.47,32.08,32.08,0,0,1-1.4,5.37,27.24,27.24,0,0,1-2.28,4.88,18.85,18.85,0,0,1-3.11,4,13.78,13.78,0,0,1-3.93,2.7,11.32,11.32,0,0,1-4.71,1A9,9,0,0,1,484.19,229.74Zm56.18-62.64a4.31,4.31,0,0,1-.82,1.48,3.61,3.61,0,0,1-1.22.92,3.36,3.36,0,0,1-1.47.32,4.56,4.56,0,0,1-2.17-.61l-.09-.29a20.74,20.74,0,0,0,.64-2.06,7.73,7.73,0,0,0,.21-1.81,4.93,4.93,0,0,0-.44-2.2,4.25,4.25,0,0,0-1.13-1.51,4.37,4.37,0,0,0-1.57-.85,5.64,5.64,0,0,0-1.7-.27,6.7,6.7,0,0,0-4.23,1.33,10.16,10.16,0,0,0-2.88,3.67,23,23,0,0,0-1.82,5.5,59.31,59.31,0,0,0-1,6.81q-.35,3.66-.49,7.65c-.1,2.66-.18,5.31-.26,8,.75,0,1.47.06,2.16.08l1.94,0,1.63,0h1.24c.68,0,1.33,0,1.94-.08s1.13-.11,1.56-.16a7,7,0,0,1,.25,1.6,1.52,1.52,0,0,1-.82,1.55,5.79,5.79,0,0,1-2.35.37,34.09,34.09,0,0,1-3.44-.2c-1.26-.13-2.66-.26-4.17-.38-.06,2.11-.14,4.42-.23,6.9s-.2,5.07-.34,7.74-.32,5.38-.53,8.12-.46,5.43-.77,8.05-.66,5.11-1.08,7.48a65.6,65.6,0,0,1-1.45,6.47,39.11,39.11,0,0,1-3,7.62,20.91,20.91,0,0,1-3.52,4.91,11.68,11.68,0,0,1-3.86,2.64,10.89,10.89,0,0,1-4,.79,10.71,10.71,0,0,1-3.18-.46A8.57,8.57,0,0,1,495.4,255a6,6,0,0,1-1.68-1.8,4.16,4.16,0,0,1-.62-2.17,3.54,3.54,0,0,1,.25-1.27,3.61,3.61,0,0,1,.68-1.11,3.46,3.46,0,0,1,1-.78,2.66,2.66,0,0,1,1.28-.31,11.44,11.44,0,0,0,1.43,2.36,8.34,8.34,0,0,0,1.67,1.6,6.63,6.63,0,0,0,3.8,1.22,5.67,5.67,0,0,0,4.36-2,15.78,15.78,0,0,0,3-5.63,48.54,48.54,0,0,0,1.9-8.79q.71-5.15,1.07-11.46t.49-13.63q.12-7.32.16-15.35c-1.4,0-2.69.08-3.88.18a9.46,9.46,0,0,0-3,.7,1.48,1.48,0,0,1-.09-.51,1.72,1.72,0,0,1,.51-1.19,4.52,4.52,0,0,1,1.44-1,10.12,10.12,0,0,1,2.23-.7,20.27,20.27,0,0,1,2.9-.34c0-1.67.13-3.27.22-4.79s.2-3,.34-4.51.32-3,.53-4.47.47-3,.78-4.64a33.27,33.27,0,0,1,1.56-5.62,25.74,25.74,0,0,1,2.18-4.43,18.41,18.41,0,0,1,2.63-3.32,16.2,16.2,0,0,1,2.92-2.28,12.3,12.3,0,0,1,3-1.31,11.86,11.86,0,0,1,3-.41,10.32,10.32,0,0,1,3.85.68,9.1,9.1,0,0,1,2.85,1.79,7.65,7.65,0,0,1,1.79,2.49,6.94,6.94,0,0,1,.61,2.83A6.18,6.18,0,0,1,540.37,167.1Z"/><path d="M648.15,100.79C646.06,97.92,639,84,629.37,90.87c-1,.35-3.57.79-5.13-1.21.17-1.66,5-3.13,5-3.13s4.53-5.22-6.52-6.27c-8.87-.17-16.52-1.56-23.91,8.18a55.18,55.18,0,0,1-7.57,8.87s-1.3,3.39-4-8.78c-3.47-9.92-4.69-15.66-.34-23.66a27.46,27.46,0,0,0,3.3-6.34l-.43-1.48-6.44,1.3S581.46,43.74,577,38.87c-1.65.7-9.22,1.13-12.09,21.22-2.87-4-4.95-5-5.47-22.43C559,31.74,554.67,23.39,552,19c-.26-3.83.61-7-2-7-2.18.35-2.7,2.35-2.09,11.13-.52,4.79-4.09,8.79-4.09,8.79s-7.21,7.82-6.08,13.39c.87,4.26,3.39,12.69-1.13,11.3-4.35-1.74-9.4-8.35-11.48,2.09.08,3.56-1.48,12.43,15.65,20.69,5.48,3.31,17,8.09,24.17,17.48.53.7,3,10.09-5.21,9,0,0-9.48-27.66-36.35-21.13-.35.78,8.26,9,4.52,10.69-2.09,1.13-3.83,4-8.52,2.35-3.57-1.3-13-6.44-10.09,1.74l2.35,8.09s-5,4.08,1.13,8.52,12.52,7.39,12.7,10.17c-.18,1.13,1.21,3.57-8.79,0-.95.26-3.66,1.33,6.44,6.61,5.3,4,20.11,13.28,27.13-2.52a5.93,5.93,0,0,0,1-1.83,9.26,9.26,0,0,0,9.31-3c1.82,0,16.34,3.21,7.39,15.47a167.75,167.75,0,0,1-10.26,13.66L546,167.05s-2.35,2.69.17,3.65c1.91,0,5.57-3.57,5.57-3.57l13.47-13.56s9.92-10,10.35-18.52c-.17-4.09,0-11,11.92-11.66,2.17.87,9,11.57,24.52,9.48,6.87-.52,19.21.09,19.91-6-2.26-2.78-10.26-6-2.35-7.56,8.52-.18,12.26,2,14.52-7.13,1.31-1.74,9.83-6,9.83-6A26.07,26.07,0,0,1,648.15,100.79ZM599.8,112.87c-7.91,1.22-14.26,1.57-24.26,13.13-3.13-2.69-2.26-7.82-25.13-7.47-5.65-1.48-9.13-1.22-8.17-7.09,0,0,3,4,12.61.74,5.26-.39,15.61,2.43,18.78,7,1,.65,4.61,1.43,3.87-6.48s2.39-14.87-14.91-31.65c-8.09-10.18-17.83-19.31-15.31-31.74.78-2.09,3.65-5.39,4.44,1.22.17,7.13.26,14.69,11.65,21.21,4.87,3.83,16.33,9.92,18,30.87.74,7.31.83,12.87.83,12.87s7.91-8.69,22.44-7.91c7.65,0,10.08-.26,10.08-.26S617.89,111.92,599.8,112.87Z"/><rect x="31.11" y="154.57" width="376.27" height="2"/><rect x="31.11" y="267.26" width="401.22" height="2"/><rect x="598.73" y="154.57" width="439.69" height="2"/><rect x="573.02" y="267.26" width="473.74" height="2"/></svg>