<svg xmlns="http://www.w3.org/2000/svg" xmlns:xlink="http://www.w3.org/1999/xlink" viewBox="0 0 39.86 45.67"><defs><style>.cls-1{fill:url(#linear-gradient);}</style><linearGradient id="linear-gradient" x1="81.32" y1="53.01" x2="-122.96" y2="-49.48" gradientUnits="userSpaceOnUse"><stop offset="0" stop-color="#fff"/><stop offset="1"/></linearGradient></defs><g id="Layer_2" data-name="Layer 2"><g id="Layer_1-2" data-name="Layer 1"><path class="cls-1" d="M37.54.54A4.47,4.47,0,0,0,35.88,0l-.45,0H6.92A4.44,4.44,0,0,0,2.49,4.43V6.64H.81A.81.81,0,0,0,0,7.45v4.07a.81.81,0,0,0,.81.81H2.49v3.06H.81A.81.81,0,0,0,0,16.2v4.07a.81.81,0,0,0,.81.81H2.49v3.06H.81A.81.81,0,0,0,0,25V29a.81.81,0,0,0,.81.81H2.49v3.06H.81A.81.81,0,0,0,0,33.7v4.07a.81.81,0,0,0,.81.81H2.49v2.65a4.44,4.44,0,0,0,4.43,4.44H35.43l.45,0a4.45,4.45,0,0,0,1.66-.51,4.67,4.67,0,0,0,1-.76,4.4,4.4,0,0,0,1.3-3.14V4.43a4.4,4.4,0,0,0-1.3-3.13A4.17,4.17,0,0,0,37.54.54ZM32.27,9.38a.82.82,0,0,0-.69-.29,1,1,0,0,0-.69.28l-3.25,3.27,0-11h7.86l0,11Z"/></g></g></svg>