<svg xmlns="http://www.w3.org/2000/svg" xmlns:xlink="http://www.w3.org/1999/xlink" viewBox="0 0 25.37 26.33"><defs><style>.cls-1{fill:url(#linear-gradient);}.cls-2{fill:url(#linear-gradient-2);}.cls-3{fill:url(#linear-gradient-3);}.cls-4{fill:url(#linear-gradient-4);}.cls-5{fill:url(#linear-gradient-5);}.cls-6{fill:url(#linear-gradient-6);}.cls-7{fill:url(#linear-gradient-7);}.cls-8{fill:url(#linear-gradient-8);}.cls-9{fill:url(#linear-gradient-9);}</style><linearGradient id="linear-gradient" x1="-3.91" y1="14.59" x2="27.1" y2="14.76" gradientUnits="userSpaceOnUse"><stop offset="0" stop-color="#937b3d"/><stop offset="1" stop-color="#f8d25d"/></linearGradient><linearGradient id="linear-gradient-2" x1="-3.84" y1="2.66" x2="27.17" y2="2.84" xlink:href="#linear-gradient"/><linearGradient id="linear-gradient-3" x1="-3.84" y1="2.57" x2="27.17" y2="2.75" xlink:href="#linear-gradient"/><linearGradient id="linear-gradient-4" x1="-3.9" y1="13.54" x2="27.11" y2="13.72" xlink:href="#linear-gradient"/><linearGradient id="linear-gradient-5" x1="-3.9" y1="13.51" x2="27.11" y2="13.69" xlink:href="#linear-gradient"/><linearGradient id="linear-gradient-6" x1="-3.93" y1="19.39" x2="27.07" y2="19.56" xlink:href="#linear-gradient"/><linearGradient id="linear-gradient-7" x1="-3.93" y1="19.35" x2="27.07" y2="19.53" xlink:href="#linear-gradient"/><linearGradient id="linear-gradient-8" x1="-3.9" y1="13.48" x2="27.11" y2="13.65" xlink:href="#linear-gradient"/><linearGradient id="linear-gradient-9" x1="-3.93" y1="19.32" x2="27.07" y2="19.49" xlink:href="#linear-gradient"/></defs><g id="Layer_2" data-name="Layer 2"><g id="Layer_1-2" data-name="Layer 1"><path class="cls-1" d="M2.39,3A2.39,2.39,0,0,0,0,5.43V23.94a2.39,2.39,0,0,0,2.39,2.39H23a2.39,2.39,0,0,0,2.39-2.39V5.43A2.39,2.39,0,0,0,23,3h-.84V4.55a1.84,1.84,0,0,1-3.67,0V3H6.9V4.55a1.84,1.84,0,0,1-3.67,0V3Zm1.52,6.7H21.46a.92.92,0,0,1,1,.87v12a.92.92,0,0,1-1,.87H3.91a.92.92,0,0,1-1-.87v-12A.92.92,0,0,1,3.91,9.73Z"/><path class="cls-2" d="M4.19.88V4.55a.88.88,0,1,0,1.75,0V.88a.88.88,0,1,0-1.75,0Z"/><path class="cls-3" d="M19.43.88V4.55a.88.88,0,1,0,1.75,0V.88a.88.88,0,1,0-1.75,0Z"/><rect class="cls-4" x="4.63" y="11.23" width="4.64" height="4.75"/><rect class="cls-5" x="10.48" y="11.23" width="4.64" height="4.75"/><rect class="cls-6" x="4.63" y="17.07" width="4.64" height="4.75"/><rect class="cls-7" x="10.48" y="17.07" width="4.64" height="4.75"/><rect class="cls-8" x="16.54" y="11.23" width="4.64" height="4.75"/><rect class="cls-9" x="16.54" y="17.07" width="4.64" height="4.75"/></g></g></svg>