<?xml version="1.0" encoding="utf-8"?>
<!-- Generator: Adobe Illustrator 27.1.0, SVG Export Plug-In . SVG Version: 6.00 Build 0)  -->
<svg version="1.1" id="Layer_1" xmlns="http://www.w3.org/2000/svg" xmlns:xlink="http://www.w3.org/1999/xlink" x="0px" y="0px"
	 viewBox="0 0 7337.74 5457.86" style="enable-background:new 0 0 7337.74 5457.86;" xml:space="preserve">
<style type="text/css">
	.st0{fill:#606161;}
	.st1{fill:#2B281C;}
	.st2{fill:#FFFFFF;}
	.st3{fill:url(#SVGID_1_);}
</style>
<g>
	<g>
		<polygon class="st0" points="1026.48,559.44 1133.51,559.44 889.14,280.85 644.78,559.44 751.81,559.44 889.14,402.87 		"/>
	</g>
	<g>
		<polygon class="st0" points="974.6,743.61 1041.2,743.61 889.14,570.26 737.09,743.61 803.69,743.61 889.14,646.18 		"/>
	</g>
	<g>
		<polygon class="st0" points="751.81,1184.18 644.78,1184.18 889.15,1462.77 1133.51,1184.18 1026.48,1184.18 889.15,1340.75 		"/>
	</g>
	<g>
		<polygon class="st0" points="803.69,1000.01 737.09,1000.01 889.15,1173.36 1041.2,1000.01 974.6,1000.01 889.15,1097.43 		"/>
	</g>
</g>
<g>
	<g>
		<path class="st0" d="M4399.23,221.22c-344.12,0-623.08,278.97-623.08,623.07c0,344.12,278.96,623.09,623.08,623.09
			s623.08-278.97,623.08-623.09C5022.31,500.18,4743.35,221.22,4399.23,221.22z M3960.01,914.88l70.02-121.27l-90.09-41.74
			l118.33-7.15l9.35-0.58l89.17-5.41l56.15,75.05l8.06,10.77l2.78,3.72l63.16,84.4l-88.57-41.05
			c-32.13,54.55-62.22,104.24-86.46,141.88c-6.91,10.73-13.35,20.48-19.23,29.09c-12.77-0.49-27.63-1.56-42.85-3.78
			c-38.59-6.41-82.88-21.28-98.61-51.93C3943.25,969.05,3944.32,945.62,3960.01,914.88z M4341.48,1221.38h-249.03h-3.44
			c-3.41-0.31-10.38-1.6-19.88-7.31l-111.29-192.77c22.47,20.12,56.48,28.93,87.88,33.67c16.26,2.69,31.63,3.95,43.67,4.25
			l4.89,0.13l0.27-0.36c15.76,0.4,27.78-0.07,32.87-0.38h157.26c23.35,0.26,45.22,0.39,62.64,0.18L4341.48,1221.38z M4376.71,472.1
			c-8.25,13.47-13.84,24.12-16.13,28.69l-78.61,136.18c-11.9,20.08-22.97,38.95-31.47,54.15l-137.92-86.33l124.51-215.68l1.73-2.96
			c1.98-2.83,6.58-8.18,16.26-13.59h222.57c-28.66,9.41-53.27,34.49-73.09,59.29c-10.48,12.74-19.24,25.43-25.51,35.7l-2.56,4.17
			L4376.71,472.1z M4391.83,478.73c6.78-10.88,15.15-23.17,24.68-35.24c24.86-30.24,59.87-61.14,94.31-59.46
			c19.43,2.02,39.16,14.65,57.93,43.64l70.02,121.24l81.17-57.14L4667,597.83l-4.18,8.38l-39.92,79.94l-93.08,11.12l-13.34,1.6
			l-4.61,0.54l-104.69,12.49l79.83-56.18c-31.16-55.09-59.16-106-79.6-145.82C4401.57,498.57,4396.34,488.1,4391.83,478.73z
			 M4720.7,1188.77c-11.47,15.84-32.27,26.61-66.75,28.39h-140.02l8.91,98.88l-65.38-98.88l-5.17-7.83l-49.26-74.52l36.91-86.19
			l5.3-12.34l1.84-4.27l41.51-96.89l8.74,97.2c63.31,0.55,121.38,1.78,166.09,3.95c12.74,0.63,24.41,1.33,34.79,2.11
			c5.99,11.31,12.48,24.7,18.18,39C4730.12,1114.03,4739.39,1159.82,4720.7,1188.77z M4854.88,952.2c1.45,3.13,3.81,9.78,3.63,20.88
			l-111.29,192.75c6.19-29.53-3.22-63.38-14.81-92.95c-5.78-15.43-12.39-29.37-18.15-39.93l-2.34-4.29l-0.44-0.05
			c-7.55-13.86-13.96-24.03-16.76-28.29l-78.62-136.18c-11.45-20.35-22.25-39.36-31.17-54.33l143.73-76.27l124.5,215.68
			L4854.88,952.2z"/>
	</g>
	<g>
		<path class="st0" d="M6268.21,221.22c-344.12,0-623.08,278.96-623.08,623.08s278.96,623.09,623.08,623.09
			c344.12,0,623.08-278.97,623.08-623.09S6612.33,221.22,6268.21,221.22z M6542.21,699.61l-27.36,9.95
			c-4.16,1.52-8.1,2.03-11.67,1.69c-0.56,5.11-1.41,10.13-2.29,15.15c3.58,0.63,7.28,2.19,10.92,4.85l24.12,17.6
			c14.07,10.26,11.4,19.78-5.93,21.31l-29.03,2.52c-4.75,0.42-8.91-0.29-12.46-1.78c-1.86,4.81-3.89,9.52-6.05,14.17
			c3.56,1.52,6.97,4.01,10,7.77l18.71,23.25c10.93,13.5,5.89,22.01-11.25,19.01l-28.67-5.08c-5.01-0.9-9.01-2.86-12.14-5.45
			c-3.08,4.16-6.09,8.36-9.42,12.32c3.24,2.37,6.07,5.77,8.13,10.41l12.04,27.3c7.06,15.85-0.04,22.79-15.8,15.44l-26.35-12.32
			c-4.8-2.24-8.24-5.31-10.57-8.78c-1.58,1.28-3.21,2.51-4.82,3.73h0.02l84.08,375.82c4.52,16.78-4.23,23.73-19.56,15.52
			l-54.66-29.28c-15.33-8.18-38.17-5.38-51.07,6.25l-43.29,39.09c-12.92,11.65-23.92,7.03-24.6-10.34l-13.18-335.42
			c-0.08,0.17-0.08,0.36-0.14,0.51l-10.75,27.85c-6.26,16.18-16.15,16.07-22.09-0.26l-6.37-17.52l-12.8,324.82
			c-0.66,17.36-11.68,21.97-24.57,10.32l-43.3-39.08c-12.9-11.65-35.75-14.44-51.08-6.23l-54.66,29.27
			c-13.54,7.26-21.94,2.65-20.58-10.12l-0.01,0.01l0.03-0.15c0.17-1.63,0.5-3.39,1.01-5.27l0.16-0.61l75.35-378.8
			c-2.33,3.59-5.92,6.76-10.98,9l-27.31,12.1c-15.88,7.01-22.75-0.06-15.46-15.77l12.35-26.41c2.26-4.92,5.44-8.41,9.03-10.75
			c-3.35-3.99-6.45-8.19-9.53-12.42c-3.21,2.75-7.4,4.81-12.73,5.64l-29.53,4.61c-17.14,2.67-21.95-5.96-10.84-19.23l18.75-22.32
			c3.35-4.01,7.17-6.52,11.09-7.89c-2.2-4.71-4.28-9.45-6.17-14.34c-3.68,1.63-8.07,2.42-13.15,1.89l-29.71-3.19
			c-17.27-1.87-19.68-11.41-5.51-21.39l23.9-16.67c4.05-2.86,8.15-4.3,12.07-4.73c-0.89-5.09-1.76-10.15-2.33-15.31
			c-3.78,0.45-7.95-0.01-12.41-1.74l-27.86-10.77c-16.2-6.27-16.07-16.14,0.23-22.11l27.39-9.94c4.35-1.59,8.43-2.03,12.13-1.59
			c0.45-5.17,1.14-10.25,1.9-15.3c-3.59-0.62-7.32-2.18-10.99-4.87L6000.48,628c-14.03-10.25-11.36-19.73,5.95-21.26l29.03-2.53
			c4.3-0.38,8.17,0.12,11.51,1.31c1.74-4.85,3.5-9.68,5.57-14.37c-3.03-1.56-5.94-3.91-8.55-7.14l-18.75-23.27
			c-10.89-13.51-5.85-22.01,11.25-18.99l28.69,5.06c3.97,0.71,7.31,2.07,10.1,3.89c3.01-4.29,6.12-8.47,9.38-12.54
			c-2.33-2.25-4.4-5.08-5.98-8.65l-12.1-27.31c-7.03-15.87,0.03-22.78,15.78-15.42l26.41,12.31c3.41,1.59,6.07,3.66,8.26,5.9
			c4.04-3.38,8.3-6.52,12.57-9.65c-1.56-2.67-2.78-5.79-3.35-9.46l-4.61-29.51c-2.69-17.15,5.94-22,19.25-10.83l22.32,18.74
			c2.76,2.33,4.74,4.9,6.26,7.53c4.83-2.24,9.73-4.33,14.73-6.23c-0.71-2.89-1.04-6.03-0.66-9.54l3.17-29.7
			c1.86-17.26,11.42-19.72,21.4-5.48l16.68,23.84c2,2.89,3.21,5.77,4.01,8.64c5.28-0.9,10.55-1.88,15.94-2.42
			c0.14-2.82,0.6-5.78,1.82-8.92l10.76-27.84c6.26-16.2,16.14-16.1,22.09,0.25l9.95,27.37c1.18,3.16,1.59,6.17,1.65,9.05
			c5.4,0.52,10.67,1.4,15.97,2.27c0.87-2.71,2.1-5.46,4.06-8.18l17.63-24.1c10.22-14.09,19.75-11.42,21.26,5.95l2.55,28.99
			c0.29,3.41-0.09,6.45-0.8,9.26c5.04,1.91,9.99,3.93,14.87,6.15c1.54-2.42,3.43-4.75,6.05-6.88l23.28-18.71
			c13.51-10.96,22.02-5.91,19.01,11.25l-5.05,28.66c-0.63,3.44-1.81,6.38-3.3,8.99c4.34,3.11,8.67,6.21,12.79,9.65
			c2.12-2,4.62-3.79,7.74-5.19l27.3-12.09c15.89-7.09,22.83,0,15.46,15.78l-12.29,26.38c-1.53,3.31-3.53,5.89-5.71,8.04
			c3.33,4.12,6.47,8.4,9.52,12.71c2.69-1.53,5.75-2.7,9.37-3.28l29.52-4.59c17.17-2.71,22.04,5.92,10.86,19.27l-18.73,22.29
			c-2.51,2.99-5.25,5.09-8.09,6.61c2.08,4.76,3.92,9.65,5.74,14.54c3.11-0.91,6.64-1.3,10.54-0.87l29.69,3.19
			c17.32,1.81,19.77,11.41,5.52,21.39l-23.87,16.71c-3.43,2.4-6.94,3.85-10.32,4.53c0.77,5.07,1.55,10.1,1.98,15.27
			c3.41-0.17,7.12,0.4,11.02,1.91l27.81,10.79C6558.67,683.76,6558.55,693.65,6542.21,699.61z"/>
		<path class="st0" d="M6294.16,655.66c-7.53-13.45-14.95-27.02-22.37-40.6c-1.13-2.14-2.52-4.15-4.01-6.16
			c-7.93,14.21-15.72,28.54-23.52,42.87c-1.37,2.26-2.38,4.89-4.52,6.78c-18.23,4.16-36.84,6.79-55.06,11.19
			c5.28,6.42,11.57,11.81,16.84,18.23c7.29,7.91,14.96,15.34,21.75,23.63c-2.14,18.72-5.15,37.2-6.66,55.94
			c13.83-5.78,27.03-12.57,40.6-18.73c3.77-1.51,7.17-4.16,11.32-4.51c4.52,1.25,8.55,3.9,12.83,5.76
			c12.81,5.8,25.51,12.07,38.46,17.85c-1.64-18.85-5.28-37.58-6.66-56.57c3.77-5.16,8.55-9.54,12.82-14.33
			c8.92-8.8,16.96-18.48,25.77-27.28c-18.1-4.28-36.46-7.03-54.55-10.94C6295.55,658.67,6294.92,656.8,6294.16,655.66z"/>
		<path class="st0" d="M6268.2,505.01c-101.27,0-183.39,82.09-183.39,183.4c0,101.27,82.12,183.39,183.39,183.39
			c101.3,0,183.41-82.12,183.41-183.39C6451.61,587.12,6369.5,505.01,6268.2,505.01z M6268.2,837c-82.06,0-148.6-66.52-148.6-148.58
			c0-82.09,66.53-148.62,148.6-148.62c82.08,0,148.61,66.53,148.61,148.62C6416.81,770.48,6350.28,837,6268.2,837z"/>
	</g>
	<g>
		<path class="st0" d="M2125.33,825.38c2.84,17.64,6.81,35.3,13.08,52.37c41.54,3.99,83.1,1.72,124.67,1.14
			c0.57-17.64-0.56-34.73-3.42-52.38C2215.26,821.98,2170.29,824.83,2125.33,825.38z"/>
		<path class="st0" d="M2154.92,942.65c2.28,15.95,6.27,31.9,11.96,47.27c34.73,1.14,69.45,0.57,104.19,0
			c0.57-15.37-0.55-31.32-3.99-46.69C2229.5,942.1,2192.49,942.65,2154.92,942.65z"/>
		<path class="st0" d="M2255.11,762.77c0.57-19.94-1.13-39.3-2.84-58.64c-52.39-3.41-104.74-1.14-157.71-1.71
			c3.42,20.5,7.97,40.99,15.37,59.79C2158.33,763.34,2206.72,762.77,2255.11,762.77z"/>
		<path class="st0" d="M2469.76,761.63c1.68-19.37,3.41-39.29,3.41-58.64c-52.39-1.14-104.76-0.58-157.15-0.58
			c-1.12,19.93,0,40.41,3.99,59.79C2370.11,762.77,2419.65,763.34,2469.76,761.63z"/>
		<path class="st0" d="M2530.26,221.22c-344.12,0-623.08,278.96-623.08,623.08c0,344.11,278.96,623.08,623.08,623.08
			c344.11,0,623.08-278.96,623.08-623.08C3153.33,500.18,2874.37,221.22,2530.26,221.22z M2047.31,641.5
			c225.43-2.28,450.34-0.57,675.8-1.14c22.76-2.85,41,22.21,32.45,43.27c-30.76,115.57-59.81,231.15-91.11,346.72
			c-3.41,17.64-21.62,24.47-37.56,23.35c-159.41,0-318.81,0-478.24,0c-16.51,1.12-34.16-8.54-36.99-26.19
			c-29.6-113.29-57.52-227.73-86.55-341.03C2018.28,668.81,2026.25,643.21,2047.31,641.5z M2243.73,1308.75
			c-37.01,7.96-76.86-18.23-85.4-55.23c-10.25-35.88,13.65-76.3,48.98-87.69c39.27-15.35,87.09,12.53,95.07,53.53
			C2312.63,1258.65,2283.59,1301.91,2243.73,1308.75z M2597.84,1309.88c-42.7,0.57-80.84-42.12-72.86-84.83
			c3.39-30.18,28.46-55.23,57.48-61.51c42.72-11.38,88.24,25.06,89.38,68.32C2674.69,1272.87,2638.84,1311.02,2597.84,1309.88z
			 M3018,660.29c-51.8,5.68-104.75-1.16-156.56,3.41c-42.14,149.73-82.56,299.45-123.56,449.75c-3.4,17.65-19.9,30.76-38.11,28.48
			c-200.42-0.56-400.25,0.57-600.66-0.56c-38.71,1.13-40.41-61.5-1.13-62.07c194.72-1.71,389.42,1.14,584.12-1.14
			c44.41-150.86,82.55-304.01,125.83-455.47c3.4-12.51,15.34-22.76,29.03-21.63c58.62-0.55,117.28-1.14,175.91,0
			C3043.06,603.91,3047.04,651.75,3018,660.29z"/>
		<path class="st0" d="M2636.54,878.32c12.53-13.08,11.97-35.87,16.52-53.49c-41.55,0-83.11-1.73-124.09,0.55
			c-2.85,18.21-3.99,35.87-2.3,54.09C2563.11,879.48,2600.11,880.61,2636.54,878.32z"/>
		<path class="st0" d="M2610.92,989.35c5.7-15.37,9.11-30.75,12.54-46.12c-34.15-0.58-68.33-1.13-103.03,0
			c-1.73,15.37-2.3,31.32-1.17,47.26C2550.03,990.49,2580.78,991.64,2610.92,989.35z"/>
		<path class="st0" d="M2324,825.38c-0.59,17.64,0.57,35.3,2.86,52.37c44.98,2.27,91.08,5.13,135.49-1.71
			c2.28-15.93,2.85-32.45,2.85-48.95C2418.52,821.4,2370.68,824.83,2324,825.38z"/>
		<path class="st0" d="M2669.59,762.2c7.39-19.37,11.95-39.29,15.37-59.21c-49.54-1.14-99.06-1.14-148.01,0
			c-1.16,19.35-7.41,40.98-1.16,59.21C2580.2,762.77,2625.19,763.34,2669.59,762.2z"/>
		<path class="st0" d="M2331.97,942.65c-0.57,15.95,0,31.9,3.97,47.27c39.32,0.57,78.57,0.57,117.86,0.57
			c1.13-15.37,7.4-33.6,0.58-47.26C2413.96,942.1,2372.4,942.65,2331.97,942.65z"/>
	</g>
</g>
<g>
	<g>
		<g>
			<polygon class="st0" points="612.11,4351.45 612.11,4229.91 295.78,4507.39 612.11,4784.86 612.11,4663.33 434.33,4507.39 			"/>
		</g>
		<g>
			<polygon class="st0" points="821.23,4410.35 821.23,4334.73 624.4,4507.39 821.23,4680.04 821.23,4604.42 710.61,4507.39 			"/>
		</g>
	</g>
</g>
<g>
	<g>
		<g>
			<polygon class="st0" points="1240.41,4351.45 1240.41,4229.91 1556.74,4507.39 1240.41,4784.86 1240.41,4663.33 1418.19,4507.39 
							"/>
		</g>
		<g>
			<polygon class="st0" points="1031.29,4410.35 1031.29,4334.73 1228.12,4507.39 1031.29,4680.04 1031.29,4604.42 1141.91,4507.39 
							"/>
		</g>
	</g>
</g>
<g>
	<g>
		<circle class="st1" cx="4403.02" cy="2837.87" r="663.67"/>
		<path class="st2" d="M4403.01,3515.44c-373.59,0-677.55-303.96-677.55-677.57s303.96-677.57,677.55-677.57
			c373.62,0,677.59,303.96,677.59,677.57S4776.63,3515.44,4403.01,3515.44z M4403.01,2188.11c-358.27,0-649.74,291.49-649.74,649.76
			c0,358.29,291.47,649.76,649.74,649.76s649.78-291.47,649.78-649.76C5052.79,2479.59,4761.28,2188.11,4403.01,2188.11z"/>
	</g>
	<g>
		<path class="st2" d="M4221.05,3206.4H4585c103.03,0,186.56-83.52,186.56-186.56V2655.9c0-103.03-83.52-186.56-186.56-186.56
			h-363.95c-103.03,0-186.56,83.52-186.56,186.56v363.94C4034.49,3122.88,4118.02,3206.4,4221.05,3206.4z M4209.18,2964.93
			c0.98-0.49,1.74-0.53,5.37,0c22.66,2.23,46.02-1.14,67.47-8.64c11.79-4.12,37.12-12.41,44.42-23.55c0.17-0.26,0.35-0.26,0.53-0.53
			c-2.96-0.69-5.91-0.69-8.86-1.21c-22.02-6.3-51.43-17.34-65.05-54.47c-0.86-2.17,0-3.29,2.25-2.86
			c18.13,1.42,24.64,0.43,30.96-0.96c-3.55-0.6-7.19-1.82-10.49-3.21c-27.74-10.56-48.01-37.62-51.7-66.87
			c-0.43-3.38-0.69-6.25-0.52-9.37c0.17-2.17,1.13-2.86,3.04-1.65c14.26,7.38,30.27,9.12,31.57,8.85
			c-3.55-2.77-6.84-5.81-10.05-8.85c-24.05-22.78-33.39-69.15-14.14-98.01c1.57-2.34,2.6-2.34,4.51-0.17
			c44,50.14,98.2,73.53,163.59,83.26c1.73,0.26,1.9,0,1.64-1.91c-1.7-11.52-1.93-22.79,0.86-34.19
			c2.89-11.81,8.52-22.95,16.17-32.38c7.39-9.11,16.67-16.68,27.07-22.11c10.38-5.42,21.87-8.72,33.56-9.48
			c12.02-0.78,24.21,1.15,35.37,5.7c8.5,3.46,16.04,8.15,23.06,14.13c1.47,1.22,2.78,2.69,4.16,4.25c0.87,0.87,1.9,1.22,3.29,0.87
			c16.72-4.18,32.42-10.08,47.61-18.22c0.69-0.35,1.26-0.53,2.13-0.18c0.69,0.53,0.44,1.4,0.09,2.09
			c-2.71,8.87-7.52,17.09-13.33,24.3c-3.8,4.73-13.29,16.42-19.74,17.5c13.6-2.29,27.55-5.75,40.15-11.45
			c1.62-0.73,1.63-1.05,1.63,0c0,0,0,0.17,0,0.35c0,1.03-0.02,3.52-2.1,6.32c-9.27,12.48-19.3,23.66-31.74,33.01
			c-1.8,1.35-4.83,2.77-4.83,5.34c0,65.56-16.75,131.05-64.54,178.53c-60.86,60.46-152.15,76.91-233.21,54.53
			c-15.69-4.33-30.7-10.41-45.1-18.04c-4.77-2.6-9.45-5.29-14.05-8.33C4209.06,2966.41,4208.19,2965.54,4209.18,2964.93z"/>
	</g>
</g>
<g>
	<circle class="st1" cx="6268.2" cy="2837.86" r="663.67"/>
	<path class="st2" d="M6268.19,3515.44c-373.59,0-677.55-303.96-677.55-677.59c0-373.59,303.96-677.55,677.55-677.55
		c373.62,0,677.59,303.96,677.59,677.55C6945.78,3211.47,6641.81,3515.44,6268.19,3515.44z M6268.19,2188.11
		c-358.27,0-649.74,291.47-649.74,649.74s291.47,649.78,649.74,649.78s649.78-291.51,649.78-649.78S6626.46,2188.11,6268.19,2188.11
		z"/>
	<g>
		<path class="st2" d="M6454.42,2469.33h-363.95c-103.03,0-186.56,83.52-186.56,186.56v363.94c0,103.03,83.52,186.56,186.56,186.56
			h363.95c103.03,0,186.56-83.53,186.56-186.56v-363.94C6640.98,2552.85,6557.46,2469.33,6454.42,2469.33z M6485.87,2923.81
			c0,70.69-57.52,128.21-128.22,128.21h-170.41c-70.7,0-128.21-57.51-128.21-128.21v-170.42c0-70.7,57.51-128.21,128.21-128.21
			h170.41c70.7,0,128.22,57.51,128.22,128.21V2923.81z"/>
	</g>
	<g>
		<path class="st2" d="M6357.65,2665.34h-170.41c-48.56,0-88.06,39.49-88.06,88.05v170.42c0,48.56,39.5,88.06,88.06,88.06h170.41
			c48.55,0,88.06-39.5,88.06-88.06v-170.42C6445.71,2704.83,6406.21,2665.34,6357.65,2665.34z M6274.2,2943.72
			c-57.96,0-105.12-47.16-105.12-105.11c0-57.97,47.16-105.12,105.12-105.12c57.96,0,105.12,47.15,105.12,105.12
			C6379.32,2896.56,6332.16,2943.72,6274.2,2943.72z M6385.45,2751.44c-13.82,0-25.03-11.21-25.03-25.02s11.2-25.02,25.03-25.02
			c13.82,0,25.02,11.2,25.02,25.02S6399.27,2751.44,6385.45,2751.44z"/>
	</g>
</g>
<g>
	<g>
		<circle class="st1" cx="2539.67" cy="2859.87" r="663.67"/>
		<path class="st2" d="M2539.66,3537.45c-373.59,0-677.55-303.96-677.55-677.59c0-373.61,303.96-677.57,677.55-677.57
			c373.62,0,677.59,303.96,677.59,677.57C3217.25,3233.49,2913.28,3537.45,2539.66,3537.45z M2539.66,2210.11
			c-358.27,0-649.74,291.49-649.74,649.76c0,358.29,291.47,649.78,649.74,649.78s649.78-291.49,649.78-649.78
			C3189.44,2501.59,2897.93,2210.11,2539.66,2210.11z"/>
	</g>
	<g>
		<path class="st2" d="M2351.3,3228.4h125.09v-263.3h-92.43v-105.23h92.43v-80.2c0-91.24,54.35-141.64,137.5-141.64
			c39.83,0,81.49,7.11,81.49,7.11v89.59h-45.91c-45.22,0-59.33,28.06-59.33,56.85v68.29h100.97l-16.14,105.23h-84.83v263.26
			l0.13,0.04h124.96c103.03,0,186.56-83.53,186.56-186.56V2677.9c0-103.03-83.52-186.56-186.56-186.56H2351.3
			c-103.03,0-186.56,83.52-186.56,186.56v363.94C2164.74,3144.88,2248.27,3228.4,2351.3,3228.4z"/>
	</g>
</g>
<linearGradient id="SVGID_1_" gradientUnits="userSpaceOnUse" x1="293.8368" y1="2943.7173" x2="1558.6887" y2="2943.7173">
	<stop  offset="0" style="stop-color:#947C3E"/>
	<stop  offset="1" style="stop-color:#F8D25D"/>
</linearGradient>
<polygon class="st3" points="1284.98,2980.6 1284.97,3174.79 1558.69,2943.72 1284.97,2712.64 1284.97,2885.81 293.84,2885.82 
	293.84,2980.6 "/>
<path class="st0" d="M2473.17,4041.8c-247.11,0-447.44,200.33-447.44,447.45c0,264.22,447.44,774.52,447.44,774.52
	s447.45-490.67,447.45-774.52C2920.62,4242.13,2720.29,4041.8,2473.17,4041.8z M2473.17,4664.56
	c-106.95,0-193.62-86.7-193.62-193.64c0-106.93,86.67-193.63,193.62-193.63c106.94,0,193.63,86.7,193.63,193.63
	C2666.8,4577.87,2580.11,4664.56,2473.17,4664.56z"/>
</svg>
