<svg xmlns="http://www.w3.org/2000/svg" viewBox="0 0 67.76 67.76"><defs><style>.cls-1{fill:#fff;}</style></defs><g id="Layer_2" data-name="Layer 2"><g id="Layer_1-2" data-name="Layer 1"><path class="cls-1" d="M50.61,0H17.15A17.15,17.15,0,0,0,0,17.15V50.61A17.15,17.15,0,0,0,17.15,67.76H50.61A17.15,17.15,0,0,0,67.76,50.61V17.15A17.15,17.15,0,0,0,50.61,0ZM53.5,41.78A11.8,11.8,0,0,1,41.71,53.57H26.05A11.8,11.8,0,0,1,14.26,41.78V26.12A11.8,11.8,0,0,1,26.05,14.33H41.71A11.8,11.8,0,0,1,53.5,26.12Z"/><path class="cls-1" d="M41.71,18H26.05a8.1,8.1,0,0,0-8.1,8.1V41.78a8.1,8.1,0,0,0,8.1,8.1H41.71a8.1,8.1,0,0,0,8.1-8.1V26.12A8.1,8.1,0,0,0,41.71,18ZM34,43.61A9.66,9.66,0,1,1,43.71,34,9.67,9.67,0,0,1,34,43.61ZM44.27,25.94a2.3,2.3,0,1,1,2.3-2.3A2.3,2.3,0,0,1,44.27,25.94Z"/></g></g></svg>