<svg xmlns="http://www.w3.org/2000/svg" viewBox="0 0 67.76 67.76"><defs><style>.cls-1{fill:#fff;}</style></defs><g id="Layer_2" data-name="Layer 2"><g id="Layer_1-2" data-name="Layer 1"><path class="cls-1" d="M17.15,67.76H50.61A17.15,17.15,0,0,0,67.76,50.61V17.15A17.15,17.15,0,0,0,50.61,0H17.15A17.15,17.15,0,0,0,0,17.15V50.61A17.15,17.15,0,0,0,17.15,67.76Zm-1.09-22.2c.09,0,.16-.05.49,0a14.56,14.56,0,0,0,6.21-.79c1.08-.38,3.41-1.14,4.08-2.17l.05,0c-.27-.07-.54-.07-.81-.12-2-.57-4.73-1.59-6-5-.08-.2,0-.31.2-.27a8.94,8.94,0,0,0,2.85-.08,4.73,4.73,0,0,1-1-.3,7.71,7.71,0,0,1-4.75-6.15,5.08,5.08,0,0,1-.05-.86c0-.2.11-.26.28-.15a7.5,7.5,0,0,0,2.91.81,12,12,0,0,1-.93-.81c-2.21-2.1-3.07-6.36-1.3-9,.15-.22.24-.22.42,0,4,4.61,9,6.76,15,7.66.15,0,.17,0,.15-.18A7.91,7.91,0,0,1,34,24.94a7.59,7.59,0,0,1,1.48-3,8,8,0,0,1,2.49-2,7.73,7.73,0,0,1,3.09-.87,7.39,7.39,0,0,1,3.25.52,7.86,7.86,0,0,1,2.12,1.3,4.72,4.72,0,0,1,.38.39.29.29,0,0,0,.3.08,18.59,18.59,0,0,0,4.38-1.67.21.21,0,0,1,.19,0c.07.05,0,.13,0,.19a6.79,6.79,0,0,1-1.22,2.24c-.35.43-1.22,1.51-1.82,1.61a14.84,14.84,0,0,0,3.69-1.06c.15-.06.15-.09.15,0v0a.93.93,0,0,1-.19.58,14.22,14.22,0,0,1-2.92,3c-.16.13-.44.26-.44.49,0,6-1.54,12-5.94,16.42-5.59,5.55-14,7.07-21.44,5a20.59,20.59,0,0,1-4.14-1.66c-.44-.24-.87-.49-1.29-.77C16.05,45.7,16,45.62,16.06,45.56Z"/></g></g></svg>